<svg id="Слой_1" data-name="Слой 1" xmlns="http://www.w3.org/2000/svg" viewBox="0 0 75.71 143.07"><defs><style>.cls-1{fill:none;stroke:#525252;stroke-miterlimit:10;stroke-width:0.75px;}.cls-2{fill:#fff;}.cls-3{fill:#2d2d2d;}</style></defs><path class="cls-1" d="M32.18,17.86" transform="translate(-14.59 -13.72)"/><path class="cls-2" d="M22.86,27.58S25.59,43.31,33.94,48.9s10.9-3.09,10.9-3.09,4.49-13.21-.29-24.28S20.92,16.36,22.86,27.58Z" transform="translate(-14.59 -13.72)"/><path d="M39.24,45c-2.19.76-3-.33-3.08-.39l.6-.45-.3.23.29-.23s1,1.19,4.09-.83l.42.63A9.51,9.51,0,0,1,39.24,45Z" transform="translate(-14.59 -13.72)"/><path d="M41,32.14a4.07,4.07,0,0,0-3.43,3.71L35,36.29a4.56,4.56,0,0,0-.85-.85,4.11,4.11,0,1,0-4.82,6.67,4,4,0,0,0,3.06.73,4.35,4.35,0,0,0,.71-.18,4,4,0,0,0,2-1.47,3.91,3.91,0,0,0,.46-.85c-.05.78,0,1.24.3,1.53s1.14.26,2.56,0l-.13-.74a5.33,5.33,0,0,1-1.93.19,4,4,0,0,1,0-1.51c.06-.66.13-1.56.14-2.71h-.75c0,.22,0,.42,0,.63a5.4,5.4,0,0,0-.28-.74l2.11-.37c0,.08,0,.16,0,.25a4.12,4.12,0,0,0,4.72,3.4,4.2,4.2,0,0,0,.7-.17,4.12,4.12,0,0,0-2-8Zm-5.89,6.1a3.39,3.39,0,0,1-.59,2.51,3.34,3.34,0,0,1-2.2,1.35,3.37,3.37,0,0,1-3.86-2.79,3.34,3.34,0,0,1,.6-2.5,3.29,3.29,0,0,1,1.62-1.21,4.74,4.74,0,0,1,.57-.15,3.37,3.37,0,0,1,3.86,2.79ZM45,35.66a3.35,3.35,0,0,1-.6,2.51,3.3,3.3,0,0,1-2.19,1.35A3.37,3.37,0,0,1,40.52,33a3.77,3.77,0,0,1,.58-.14A3.37,3.37,0,0,1,45,35.66Z" transform="translate(-14.59 -13.72)"/><path d="M31.31,35.89a4,4,0,0,0-2.13,1.77l.87.49,0,0a1.7,1.7,0,0,0,2,1.11l.12,0a1.71,1.71,0,0,0,1.09-2,2,2,0,0,0-.18-.42l.28-.48A2.67,2.67,0,0,0,31.31,35.89Z" transform="translate(-14.59 -13.72)"/><path d="M40.88,33.74a3.92,3.92,0,0,0-2.12,1.77l.43.24h0l.44.24,0,0a1.68,1.68,0,0,0,2,1.1l.13,0A1.72,1.72,0,0,0,42.91,35h0a1.38,1.38,0,0,0-.18-.41l0,0,.26-.43A2.69,2.69,0,0,0,40.88,33.74Z" transform="translate(-14.59 -13.72)"/><path d="M45,21.29c-3.71-7.08-10.19-7.46-15-5.45s-9.07,7-7.62,11.81c-.06,3.81.85,7,2.51,8.74l.1.08c0,.09.07.18.11.28-.26.61-1.13,2.89-.16,4.44a3.32,3.32,0,0,0,2.91,1.35,20.17,20.17,0,0,0,5.9,6.67c2.69,1.8,5.1,2.36,7.15,1.64l.06,0c3.12-1.13,4.22-4.77,4.26-4.9a43.76,43.76,0,0,0,1.69-8.49l.2-.06a2.58,2.58,0,0,0,1.72-1.56c.65-1.87-1.07-4.46-1.57-5.16C47.25,28.77,47,24.48,45,21.29ZM25.55,40.79a3.88,3.88,0,0,1-.05-3,38.26,38.26,0,0,0,1.88,4A2.4,2.4,0,0,1,25.55,40.79ZM44.48,45.7s-1,3.42-3.79,4.42l-.06,0c-1.82.64-4,.11-6.48-1.55C30.28,46,27.63,41.12,25.9,36.72h0c1.25-.45,1.78-4.56,2-7.39,7,2.51,10.93-1.15,13.32-3.37l.69-.63c.94,2.49,4.24,6.41,4.39,6.59l0,0A43.57,43.57,0,0,1,44.48,45.7ZM48.1,35.57a1.79,1.79,0,0,1-1.14,1c.1-1.2.16-2.47.15-3.79l0,0,.06-.89C47.78,33,48.48,34.48,48.1,35.57Z" transform="translate(-14.59 -13.72)"/><path class="cls-2" d="M44.86,120.1c-.2-.77-.39-1.53-.58-2.28A22.54,22.54,0,0,0,43,114.09c-.57-1.3-1.12-2.6-1.63-3.92-.58-1.51-1.16-3-1.64-4.56a26.84,26.84,0,0,1-.68-3.08,5.72,5.72,0,0,1-.16-2.11c.56-.1,1.15-.18,1.73-.3,1.2-.27,2.4-.53,3.59-.84,1.49-.38,3-.8,4.47-1.23.84-.24,1.67-.48,2.5-.76q4.26-1.46,8.52-3c1.21-.42,2.42-.87,3.6-1.36.78-.32,1.52-.74,2.27-1.13,1.24-.64,2.48-1.28,3.71-1.93.57-.31,1.13-.66,1.69-1s.72-.17.92.28c.3.66.58,1.33.87,2,.55,1.28,1.11,2.56,1.64,3.85s1,2.47,1.49,3.72c1,2.59,2,5.18,3,7.77.19.49.35,1,.54,1.54-.25,0-.46,0-.66,0a10.34,10.34,0,0,0-3.7.57,28,28,0,0,0-3.64,1.59c-.57.27-1.13.59-1.68.91a8.35,8.35,0,0,0-2.1,2,4.77,4.77,0,0,1-.53.57,1.64,1.64,0,0,1-1.23.41c-.54,0-1.08,0-1.62,0a.68.68,0,0,1-.74-.45c-.64-1.34-1.26-2.69-1.94-4a6.43,6.43,0,0,1-.6-2.73c-.06-1.09-.13-2.19-.19-3.28,0-.11,0-.23,0-.33s0-.33-.15-.4a.28.28,0,0,0-.44.13,1.38,1.38,0,0,0-.18.61c.07,1.37.13,2.73.24,4.09.21,2.36.45,4.72.69,7.07,0,.27.11.53.16.8s0,.48-.43.38a7.82,7.82,0,0,0-3.08-.25,13.27,13.27,0,0,0-2.17.45c-1.46.45-2.91.93-4.34,1.48a11.57,11.57,0,0,0-2,1.1A8.79,8.79,0,0,1,45.61,120Z" transform="translate(-14.59 -13.72)"/><path class="cls-2" d="M73.65,56.06c-.54.35-1.07.65-1.56,1a15.94,15.94,0,0,0-4.66,5.37,11.13,11.13,0,0,0-1.13,4c-.12.9-.2,1.8-.31,2.74-.55-.21-1.11-.38-1.64-.62-.82-.37-1.61-.79-2.42-1.19a1.9,1.9,0,0,1-.94-1L59.08,61.6a2.44,2.44,0,0,0-.1-.24c-.12-.23-.27-.27-.52-.16a.32.32,0,0,0-.19.47c.28.68.55,1.38.84,2.06.41,1,.84,1.94,1.27,2.9a42.39,42.39,0,0,0,2.9,5.29c1.36,2.16,2.67,4.35,4,6.54.85,1.43,1.66,2.89,2.48,4.33.15.26.12.42-.13.56-1,.54-2,1.09-3,1.6-1.56.78-3.13,1.57-4.73,2.29s-3.3,1.41-5,2.08-3.2,1.28-4.82,1.83c-2,.67-4,1.27-6.09,1.85-1.53.44-3.09.8-4.65,1.16-1,.23-2.06.42-3.11.57a5,5,0,0,1-1.22,0,.54.54,0,0,1-.3-.28,9.67,9.67,0,0,1-.83-3.26c-.27-2.07-.53-4.14-.81-6.21a1.26,1.26,0,0,1,.29-1.06c.9-1.08,1.78-2.18,2.68-3.26a1.5,1.5,0,0,1,.43-.3,4.65,4.65,0,0,0,1-.65c.47-.52.86-1.11,1.28-1.68l.2-.25c.43,1.45.83,2.87,1.27,4.27a4.75,4.75,0,0,0,.5,1,2.19,2.19,0,0,0,2.4,1.06c1.11-.19,2.22-.38,3.3-.66,1.52-.4,3-.86,4.52-1.33a9.13,9.13,0,0,0,3.21-1.67A5.64,5.64,0,0,0,57.39,79a3.49,3.49,0,0,0,.33-2.39,22.75,22.75,0,0,0-1.57-5.48c-.43-1-.89-2-1.35-2.92s-1.1-2.2-1.63-3.31a3,3,0,0,0-3.48-1.56c-.22.06-.44.12-.66.16a.52.52,0,0,1-.63-.3c-.39-.77-.76-1.55-1.18-2.3-.27-.47-.62-.89-.93-1.33,0-.08-.11-.15-.19-.26,1.88-1.12,3.74-2.22,5.58-3.34A10.17,10.17,0,0,1,54,55c1.13-.37,2.22-.84,3.31-1.31a2.44,2.44,0,0,0,1.16-1.17,1.24,1.24,0,0,0-.2-1.45l-1.49-1.81c.21,0,.37,0,.52,0,1.82.32,3.65.59,5.46,1a15.25,15.25,0,0,1,4.57,2c2,1.19,4,2.35,6.07,3.53ZM52.43,62.52A2.38,2.38,0,0,0,53.63,64a1.48,1.48,0,0,0,1.59,0,1.66,1.66,0,0,0,.88-1.86A2.82,2.82,0,0,0,54.86,60a1.56,1.56,0,0,0-2.35.66A2.36,2.36,0,0,0,52.43,62.52Zm2.8,2.92c.14.29.24.53.36.77a.87.87,0,0,0,.63.5,1.15,1.15,0,0,0,1.34-.78,2,2,0,0,0-1-2.22,1.09,1.09,0,0,0-1.11.19.77.77,0,0,0-.38.82C55.15,65,55.2,65.24,55.23,65.44Z" transform="translate(-14.59 -13.72)"/><path class="cls-2" d="M16.69,41.93c-.31-1.06-.64-2.12-.9-3.19a15.68,15.68,0,0,1-.31-3.62,22.87,22.87,0,0,1,.32-4.6,22.32,22.32,0,0,1,1.54-4.59,18.84,18.84,0,0,1,5.48-7.17A20.05,20.05,0,0,1,30,15.18,16.92,16.92,0,0,1,39.07,15a21,21,0,0,1,12.16,8.15,23.76,23.76,0,0,1,2.28,4.17,28,28,0,0,1,1.35,3.75A15.74,15.74,0,0,1,55.47,37c-.13,1.25-.21,2.52-.43,3.76a17,17,0,0,1-1.46,4.33c-.17.36-.34.72-.48,1.08A4.67,4.67,0,0,1,51.61,48a28.28,28.28,0,0,1-6.27,4,27,27,0,0,1-5.12,2c-1.26.33-2.53.59-3.8.87-.41.09-.83.13-1.23.24a1,1,0,0,1-1-.36,9.85,9.85,0,0,0-1-1.09,3.17,3.17,0,0,0-2.63-.83,3.43,3.43,0,0,0-1.77.91c-.28.24-.55.51-.84.75a.32.32,0,0,1-.26.06,16,16,0,0,1-3.38-2.09,33.13,33.13,0,0,1-4.3-4.24,19.73,19.73,0,0,1-3.11-6.07,1.59,1.59,0,0,0-.07-.2Zm23.56,7.24a35.26,35.26,0,0,0,5.08-2.1c1.44-.73,2.84-1.55,4.23-2.4A5.06,5.06,0,0,0,52.15,40c0-1.37-.11-2.74-.26-4.1a15.23,15.23,0,0,0-1.13-4.79c-.17-.36-.33-.73-.5-1.1-.45-1-.87-2-1.36-2.94a9.27,9.27,0,0,0-1.78-2.44A2.58,2.58,0,0,0,44.27,24c-.54.18-1.08.41-1.62.6l-8.17,2.84-10,3.47c-.87.3-1.73.62-2.61.86a3.12,3.12,0,0,0-2.06,1.83,4.08,4.08,0,0,0-.13,2.65,21.11,21.11,0,0,0,.66,2.45c.37,1.13.78,2.25,1.24,3.36.28.7.67,1.36,1,2a10.52,10.52,0,0,0,.62,1.26C24.12,46.68,25,48,26,49.27a4.57,4.57,0,0,0,4.55,1.92c1.11-.16,2.22-.35,3.33-.54.88-.15,1.78-.28,2.65-.48C37.74,49.87,39,49.5,40.25,49.17Z" transform="translate(-14.59 -13.72)"/><path class="cls-2" d="M33.75,61.43A2.27,2.27,0,0,0,35.43,61c.9-.55,1.77-1.16,2.7-1.65A8.4,8.4,0,0,1,42,58.2a4.3,4.3,0,0,1,3.69,1.88,19.05,19.05,0,0,1,2.66,5.29,13.36,13.36,0,0,1,.77,4.25,5.53,5.53,0,0,1-.72,2.81,3.35,3.35,0,0,1-2.83,1.75,6.23,6.23,0,0,0-3.62,1.4c-.7.55-1.44,1.07-2.19,1.57a2.77,2.77,0,0,1-.93.36,5.29,5.29,0,0,1-4.29-.7A10.65,10.65,0,0,1,32.47,75a13.34,13.34,0,0,1-1.82-3c-.16-.34-.32-.68-.46-1A6.46,6.46,0,0,1,30,67c.17-.87.34-1.73.48-2.6a6.25,6.25,0,0,0-.29-2.68,29.28,29.28,0,0,0-1.69-4.43,2,2,0,0,1-.05-1.86A2.86,2.86,0,0,1,31,53.6a2.67,2.67,0,0,1,2,1,11.59,11.59,0,0,1,2.49,4.1,4.89,4.89,0,0,0,.35.73c.1.2.07.36-.17.51s-.79.47-1.19.69A1.47,1.47,0,0,0,33.75,61.43Z" transform="translate(-14.59 -13.72)"/><path class="cls-2" d="M62.28,123.42c.07.69.16,1.39.22,2.09q.28,3.58.55,7.16c.07.91.18,1.81.17,2.71a10.19,10.19,0,0,1-.32,2,2.22,2.22,0,0,1-1.44,1.51c-1,.4-1.9.84-2.88,1.2a15.11,15.11,0,0,1-6.59,1,2.5,2.5,0,0,1-2.12-1.29c-.31-.55-.53-1.16-.79-1.74A25.45,25.45,0,0,1,47.55,133c-.19-.88-.47-1.74-.66-2.62s-.4-2.05-.61-3.07-.38-1.81-.57-2.72a4,4,0,0,1-.07-.42c.54.11,1,.18,1.53.32a12.53,12.53,0,0,1,2.65,1.3A8.47,8.47,0,0,0,54.28,127a11.28,11.28,0,0,0,2.08-.34c1-.26,2.09-.58,3.12-.9a7.28,7.28,0,0,0,1.14-.52,3.27,3.27,0,0,0,1.25-1.28l.32-.53Z" transform="translate(-14.59 -13.72)"/><path class="cls-2" d="M64.33,143.72c-.6.08-1.18.15-1.75.24a4.67,4.67,0,0,0-.74.17c-.3.08-.38.24-.3.5s.19.29.51.24a10.58,10.58,0,0,1,1.85-.27,3.81,3.81,0,0,1,3.82,2.57,24.87,24.87,0,0,1,.87,2.65,2.5,2.5,0,0,1-.67,2.3,5.82,5.82,0,0,1-2.45,1.73A16.23,16.23,0,0,0,63,155a5.92,5.92,0,0,1-2,.69,8.94,8.94,0,0,1-1.7.25,5.51,5.51,0,0,1-4.7-2.44c-1-1.36-1.93-2.71-2.88-4.07a5.19,5.19,0,0,1-.8-2.44c-.11-1-.18-1.95-.26-2.92,0-.28.06-.38.33-.36a13.08,13.08,0,0,0,4.61-.62c1.52-.42,3-.85,4.54-1.29.66-.2,1.3-.44,1.95-.67.14-.05.26-.14.4-.2.35-.15.5-.11.67.24.27.56.51,1.13.78,1.69C64,143.13,64.17,143.41,64.33,143.72Zm3.2,4.11.08-.06a3.77,3.77,0,0,0-.28-.57,4.11,4.11,0,0,0-4-1.54,13.33,13.33,0,0,0-4.8,2.3,1.61,1.61,0,0,0-.57.84.43.43,0,0,0,0,.16c.06,0,.14,0,.18,0s.25-.26.39-.39a9.58,9.58,0,0,1,3.05-1.79,11.21,11.21,0,0,1,2-.59,3.83,3.83,0,0,1,2.86.85C66.84,147.27,67.19,147.56,67.53,147.83Zm-.3.61-.1-.13a4.27,4.27,0,0,0-.44-.41,4.59,4.59,0,0,0-4.13-.67,9.35,9.35,0,0,0-2,.81c-.74.39-1.43.89-2.14,1.34a.17.17,0,0,0-.07.12s.06.08.08.08a7,7,0,0,0,.9-.23,3.08,3.08,0,0,0,.49-.34,11,11,0,0,1,3.1-1.29,4.28,4.28,0,0,1,3.48.5A1.42,1.42,0,0,0,67.23,148.44Z" transform="translate(-14.59 -13.72)"/><path class="cls-2" d="M82.92,128.07l1.79,3.27c-.36,0-.67,0-1-.06a1,1,0,0,0-.84.35.78.78,0,0,0,.7.42c.78,0,1.57,0,2.35,0a2.66,2.66,0,0,1,2.58,1.49,13.26,13.26,0,0,1,.95,2.6,1.3,1.3,0,0,1-.19,1.08,7.21,7.21,0,0,1-3.77,3.17c-1.16.4-2.33.79-3.48,1.21a6,6,0,0,1-5.77-.9,15.29,15.29,0,0,1-4.06-4.42,7.94,7.94,0,0,1-1-2.78c-.09-.47-.16-.94-.24-1.41,0-.24,0-.3.37-.31.86,0,1.72-.06,2.57-.14a14.44,14.44,0,0,0,3.66-1c.89-.31,1.78-.62,2.66-.95a7.28,7.28,0,0,0,2.55-1.56Zm5.21,6.24.07-.07a3.27,3.27,0,0,0-.47-.44,3.83,3.83,0,0,0-.67-.34,6.1,6.1,0,0,0-4.54-.26,8.14,8.14,0,0,0-3.67,2.67.75.75,0,0,0-.13.25.5.5,0,0,0,.16.59c.1-.14.19-.27.27-.4a4.11,4.11,0,0,1,1.66-1.62c.31-.16.62-.32.92-.49a5.24,5.24,0,0,1,4.09-.56C86.59,133.85,87.36,134.09,88.13,134.31Zm-.19.54a10.13,10.13,0,0,0-2.73-.56,9.76,9.76,0,0,0-3.69.78,3.89,3.89,0,0,0-2,1.69,1.35,1.35,0,0,0,0,.29l.1,0a4.09,4.09,0,0,0,.66-.5,3.54,3.54,0,0,1,1.57-1,9.08,9.08,0,0,1,3.78-.67,13.41,13.41,0,0,1,1.52.26A.67.67,0,0,0,87.94,134.85Z" transform="translate(-14.59 -13.72)"/><path class="cls-2" d="M36.75,95.62c.71-.09,1.43-.14,2.14-.26,1.1-.19,2.2-.41,3.28-.65s2.41-.58,3.61-.9S48,93.2,49,92.88c1.49-.45,3-.85,4.45-1.39,2.29-.84,4.56-1.75,6.81-2.69,1.27-.53,2.48-1.17,3.72-1.76,1-.46,1.95-.88,2.91-1.37s1.87-1,2.81-1.55L70,84a.45.45,0,0,1,.63.15,5.37,5.37,0,0,1,.87,3,1.38,1.38,0,0,1-.82,1.23c-1.44.77-2.87,1.57-4.33,2.32-.59.31-1.23.53-1.84.82s-1.35.69-2,1S61,93,60.3,93.3s-1.21.4-1.81.61l-9.2,3.22a46.25,46.25,0,0,1-5.46,1.47c-1.21.26-2.41.56-3.61.85a2.3,2.3,0,0,1-2.72-1.22A7.7,7.7,0,0,1,36.75,95.62Z" transform="translate(-14.59 -13.72)"/><path class="cls-2" d="M66,118.77c.18,0,.32.08.46.13.65.19,1.3.39,2,.57a7.07,7.07,0,0,0,3.2.21,26.11,26.11,0,0,0,3.82-.77,15.47,15.47,0,0,0,1.83-.78,12.94,12.94,0,0,0,3-1.88c.3-.26.57-.55.87-.85.11.38.22.75.3,1.12.37,1.73.75,3.46,1.1,5.19a5.43,5.43,0,0,1,0,2.8A4.81,4.81,0,0,1,80.3,127,9.25,9.25,0,0,1,78,128c-1,.31-2,.64-3,.94a11.75,11.75,0,0,1-2.88.5,2.06,2.06,0,0,1-2-1.27c-1-2.28-1.9-4.58-3-6.78-.41-.77-.72-1.59-1.08-2.38C66,118.91,66,118.86,66,118.77Z" transform="translate(-14.59 -13.72)"/><path class="cls-2" d="M45,120.9a11.75,11.75,0,0,0,5-1.73c0,.33-.1.62-.15.92a6.14,6.14,0,0,0,.08,3,3.19,3.19,0,0,0,2.39,2.39,1.17,1.17,0,0,0,1.13-.44.65.65,0,0,0-.06-.76,6.21,6.21,0,0,0-.52-.63,3.13,3.13,0,0,1-.88-2.15l-.06-1.09a1.89,1.89,0,0,0-.85-1.78,5.28,5.28,0,0,1,.67-.34c1.18-.43,2.35-.84,3.54-1.24a9.18,9.18,0,0,1,3-.39c.76,0,1.51.07,2.26.14.49,0,.68.29.75.77q.27,1.83.57,3.66a1.63,1.63,0,0,1-.12,1c-.21.4-.39.82-.59,1.22a2.88,2.88,0,0,1-1.38,1.31,14.24,14.24,0,0,1-5.35,1.44,7,7,0,0,1-3.46-.77c-.88-.41-1.72-.9-2.59-1.33a5.77,5.77,0,0,0-2.3-.63c-.48,0-.59-.18-.67-.64C45.31,122.17,45.16,121.54,45,120.9Z" transform="translate(-14.59 -13.72)"/><path class="cls-2" d="M75.62,76.1a12,12,0,0,0-7.38-5,4.94,4.94,0,0,0-2.13,0l-.21,0a3.91,3.91,0,0,1,.21-.77c.49-.95,1-1.89,1.51-2.82a3.66,3.66,0,0,1,2-1.61,19.92,19.92,0,0,1,4.7-1.14,6.1,6.1,0,0,1,5.55,2.37c.19.23.38.47.59.7a1.17,1.17,0,0,1,.2,1.33,11.76,11.76,0,0,1-1.81,3.05C77.77,73.54,76.71,74.8,75.62,76.1Z" transform="translate(-14.59 -13.72)"/><path class="cls-2" d="M78.84,56.54a3.65,3.65,0,0,1,.53.25,9.23,9.23,0,0,1,4.21,7.78A7.33,7.33,0,0,1,82,68.84c-.21-.32-.4-.61-.58-.9a8.43,8.43,0,0,0-3.54-3.31,6.63,6.63,0,0,0-4.11-.51,27.77,27.77,0,0,0-4.57,1.14l-.19,0c.24-.32.46-.59.64-.88A6.52,6.52,0,0,0,70,63.6c.11-.23,0-.5-.13-.55a.41.41,0,0,0-.48.22l-2.06,3.26a6.3,6.3,0,0,1-.37.53,11.56,11.56,0,0,1,2.6-6.53,12.84,12.84,0,0,1,5.67-4.27c0,.16-.05.28-.07.4a.81.81,0,0,0,.53,1c.4.21.82.39,1.2.63A5.68,5.68,0,0,1,79,60.88c.39.9.7,1.83,1.07,2.73a1.16,1.16,0,0,0,.32.46.68.68,0,0,0,1.06-.35,3.46,3.46,0,0,0,.25-1.8,4.82,4.82,0,0,0-.68-2c-.46-.78-.9-1.56-1.38-2.31a7,7,0,0,0-.71-.84l-.15-.2Z" transform="translate(-14.59 -13.72)"/><path class="cls-2" d="M51.32,49.27c.16.19.27.36.42.51a.62.62,0,0,0,.91.11c.41-.3.79-.65,1.18-1,.09-.07.17-.17.3-.29.16.46.32.89.45,1.33,0,0-.07.14-.12.19a27.32,27.32,0,0,1-3.17,2.17c-.42.24-.82.53-1.25.75-.67.32-1.35.6-2,.88s-1.52.59-2.25.92c-.18.09-.28.35-.42.54a.71.71,0,0,0,.78.15l3.63-1.62c.7-.31,1.39-.62,2.07-1a13.07,13.07,0,0,0,3-2.18l.11-.1.06,0c.59.44.58.71-.05,1.08-.31.17-.66.27-1,.43a8.38,8.38,0,0,0-.75.46s-.06.13,0,.15a.23.23,0,0,0,.17.07c.74-.22,1.48-.41,2.2-.67s.75-.7.43-1.35c-.45-.89-.88-1.8-1.34-2.69a1,1,0,0,1,.06-.86l.44.81L56.64,51a2.7,2.7,0,0,1,.2.54.82.82,0,0,1-.55,1c-.38.18-.78.35-1.17.52a3.4,3.4,0,0,1-1.51.27l-.33,0a.71.71,0,0,0,.6.52,6.77,6.77,0,0,0,.78,0l.43,0,0,.1c-.64.22-1.28.48-1.94.66a13.3,13.3,0,0,0-3.7,1.73c-1,.65-2,1.29-3,1.92a2.44,2.44,0,0,1-.56.28.86.86,0,0,1-.82-.09,5.84,5.84,0,0,0-3.28-1,4.43,4.43,0,0,0-.72.09c-.37.06-.74.1-1.1.19A2.65,2.65,0,0,0,39,58a7,7,0,0,1-1.52.87l-.57.25c-.2.08-.4.07-.5-.14-.47-1-.92-2-1.4-3.1A35.47,35.47,0,0,0,51.32,49.27Z" transform="translate(-14.59 -13.72)"/><path class="cls-2" d="M76.53,108.94a3.1,3.1,0,0,0,0,.88,4.68,4.68,0,0,0,.58,1.24,6.58,6.58,0,0,1,1.18,3.09,7.38,7.38,0,0,1,0,.94,1,1,0,0,0,.6,1c.19.08.17.18,0,.27a17.73,17.73,0,0,1-4.58,2,18.27,18.27,0,0,1-3.29.57,9.64,9.64,0,0,1-3.45-.48,10.44,10.44,0,0,0-1.68-.35.64.64,0,0,1-.55-.41c-.34-.76-.68-1.53-1-2.29-.06-.14-.16-.27-.25-.43.56,0,1.11,0,1.65,0a2.65,2.65,0,0,0,2.44-1.26A7.5,7.5,0,0,1,71,111.3c1.22-.61,2.47-1.18,3.72-1.74C75.33,109.31,75.94,109.14,76.53,108.94Zm-6.31,6.22a4.71,4.71,0,0,0,2.34,2.46.63.63,0,0,0,.87-.23.74.74,0,0,0-.16-1.06,11.33,11.33,0,0,1-1-1,3.79,3.79,0,0,1-.8-2.12c0-.43-.26-.6-.76-.61s-.6.09-.69.55A4,4,0,0,0,70.22,115.16Z" transform="translate(-14.59 -13.72)"/><path class="cls-2" d="M49.76,67.39a1.37,1.37,0,0,1,1.58.85c.35.74.69,1.49,1,2.25.54,1.35,1.11,2.7,1.57,4.08A13.9,13.9,0,0,1,54.39,77a1,1,0,0,1-.74,1.25c-1.85.73-3.69,1.5-5.57,2.14A22.44,22.44,0,0,1,45,81a.57.57,0,0,1-.58-.36c-.48-1.35-.95-2.71-1.41-4.06a1.63,1.63,0,0,1-.08-.43.44.44,0,0,1,.32-.51c.56-.19,1.11-.41,1.67-.59a4.06,4.06,0,0,1,.7-.08,4.49,4.49,0,0,0,3.21-1.79,4.82,4.82,0,0,0,1-3.4C49.86,69,49.8,68.2,49.76,67.39Z" transform="translate(-14.59 -13.72)"/><path class="cls-2" d="M34.2,84.83a2.72,2.72,0,0,1-.82,1.63,7.08,7.08,0,0,1-4.53,2,5,5,0,0,1-3.78-1.57,9.08,9.08,0,0,1-2.44-3.66c-.37-1-.79-2-1.14-3-.2-.58-.3-1.19-.44-1.76a9.47,9.47,0,0,0,1.41,0,2.39,2.39,0,0,0,.92-.34A.93.93,0,0,0,23.81,77a.88.88,0,0,0-.91-.53c-.26,0-.51.06-.77.09a.31.31,0,0,1-.21,0A6.21,6.21,0,0,1,25.26,75a6.44,6.44,0,0,0-.6.69.61.61,0,0,0-.09.44,15.36,15.36,0,0,0,1.74,4.36,8.5,8.5,0,0,0,4.25,3.45,10.16,10.16,0,0,0,3,.77A3.56,3.56,0,0,1,34.2,84.83Z" transform="translate(-14.59 -13.72)"/><path class="cls-2" d="M22.4,75.11c0-.64,0-1.23-.06-1.82-.05-1-.13-2-.18-3a10,10,0,0,1,1-4.56c.3-.68.62-1.35,1-2a1.19,1.19,0,0,1,.57-.54,6.45,6.45,0,0,0,2.2-1.38,2.2,2.2,0,0,1,1.86-.55.71.71,0,0,1,.7.61,6.91,6.91,0,0,1,.06,3.44c-.16.76-.29,1.53-.44,2.29a1.84,1.84,0,0,1-.62,1.06,2.31,2.31,0,0,0-.83,1.9,1.89,1.89,0,0,1-.24,1.08c-.4.66-.81,1.32-1.27,1.95a1.6,1.6,0,0,1-.69.48C24.44,74.42,23.44,74.75,22.4,75.11Z" transform="translate(-14.59 -13.72)"/><path class="cls-2" d="M65.81,73.13a2.69,2.69,0,0,1,2.43.31,22.28,22.28,0,0,1,5.5,4.35.69.69,0,0,1,.14.86,1.75,1.75,0,0,0,.5,2.34l1.23,1.1a3.27,3.27,0,0,1,1,1.37,1.67,1.67,0,0,1-.2,1.57,3.62,3.62,0,0,1-1.28,1,4.72,4.72,0,0,1-2.25.7c-.41,0-.58-.12-.63-.53a5.23,5.23,0,0,0-1.12-2.7,10.84,10.84,0,0,1-1.21-2,48.24,48.24,0,0,0-2.72-4.73c-.64-1-1.21-2-1.81-3-.17-.29-.1-.46.22-.58Z" transform="translate(-14.59 -13.72)"/><path class="cls-2" d="M41.52,77l.67-.59c.14.47.24.93.4,1.37.42,1.17.84,2.33,1.28,3.49a.84.84,0,0,0,1,.54c.85-.13,1.69-.25,2.53-.43a39,39,0,0,0,5.42-1.86,5.86,5.86,0,0,0,1.9-1.11,1.16,1.16,0,0,0,.47-1,17.86,17.86,0,0,0-.27-2.2,27.14,27.14,0,0,0-1.81-5.1,11.25,11.25,0,0,0-1.51-2.71,3.47,3.47,0,0,0-.62-.59,1.2,1.2,0,0,0-1-.16.5.5,0,0,1-.62-.41c-.17-.57-.36-1.14-.54-1.71,0,0,0-.09,0-.16A3.85,3.85,0,0,1,50.9,64a2.27,2.27,0,0,1,1.55,1.23c.55,1,1.07,2,1.55,3s1,2.28,1.51,3.42A16.31,16.31,0,0,1,57,77.32a2.51,2.51,0,0,1-1,2.17,9.62,9.62,0,0,1-3.15,1.81c-1.38.45-2.76,1-4.17,1.31-1.19.3-2.44.4-3.66.61s-1.39-.25-1.83-1a9.27,9.27,0,0,1-.86-2.67,19.08,19.08,0,0,0-.65-2.07C41.64,77.29,41.58,77.14,41.52,77Z" transform="translate(-14.59 -13.72)"/><path class="cls-2" d="M37.08,80.66c-.61.74-1.18,1.44-1.77,2.13-.26.31-.55.61-.83.91a.75.75,0,0,1-.68.26,10.31,10.31,0,0,1-5.32-2.15,8.73,8.73,0,0,1-2.42-3.58A12.69,12.69,0,0,0,25.58,77,1.05,1.05,0,0,1,25.63,76l2.11-3.47.08-.1a3.17,3.17,0,0,1,.18.38,14.62,14.62,0,0,0,4.88,6.59,6.22,6.22,0,0,0,3.93,1.3Z" transform="translate(-14.59 -13.72)"/><path class="cls-2" d="M29,73.25c.39-.07.73-.15,1.09-.2.08,0,.2.1.25.19A15.36,15.36,0,0,0,32,75.56a9.45,9.45,0,0,0,2.45,2.1,6.11,6.11,0,0,0,4.13.67c.37-.06.75-.09,1.14-.14a2.82,2.82,0,0,1-1.24,1.29A4.84,4.84,0,0,1,33.8,79a10.55,10.55,0,0,1-3.23-3.15c-.51-.73-1-1.49-1.43-2.25A1.48,1.48,0,0,1,29,73.25Z" transform="translate(-14.59 -13.72)"/><path class="cls-2" d="M70.28,129.39a2.07,2.07,0,0,0,2,.78,13.78,13.78,0,0,0,3.26-.59q2.3-.74,4.55-1.58a4.94,4.94,0,0,0,2.26-1.73c.06-.08.14-.16.26-.29a1.51,1.51,0,0,1,0,.28,2.16,2.16,0,0,1-1.18,2,17.12,17.12,0,0,1-3.8,1.6c-1.14.36-2.27.71-3.42,1a6.89,6.89,0,0,1-3,.18,1.07,1.07,0,0,1-1-1C70.13,129.59,70.13,129.59,70.28,129.39Z" transform="translate(-14.59 -13.72)"/><path class="cls-2" d="M24.13,56.27l1.17.63a2.14,2.14,0,0,0,1.64.22l.15,0,.12-.07-1.12-.43A4.52,4.52,0,0,1,24,55.09a2.14,2.14,0,0,1-.23-.38,1,1,0,0,1,0-.3l.09-.07a4.61,4.61,0,0,1,.6.47,6.53,6.53,0,0,0,2,1.46.7.7,0,0,0,.17.06,1.1,1.1,0,0,1,1,.77c.31.68.64,1.35.92,2a9.66,9.66,0,0,1,.31,1.18c-.6.11-1.15.23-1.7.28-.12,0-.29-.24-.38-.4-.18-.34-.24-.39-.63-.32a1.45,1.45,0,0,0-1.24,1,.67.67,0,0,0,.06.67c.1.16.19.33.29.51l-.62.21a1.25,1.25,0,0,1-.08-1c.16-.5.35-1,.54-1.47a2.24,2.24,0,0,0,.29-1.51,2.83,2.83,0,0,0-.34-.7c-.28-.43-.59-.83-.88-1.25Zm1.95,1.85a.55.55,0,0,0-.2.08c-.09.09-.22.21-.22.31a.43.43,0,0,0,.26.27,2.15,2.15,0,0,0,1.43-.16c.17-.1.35-.23.31-.46a.44.44,0,0,0-.57-.28Z" transform="translate(-14.59 -13.72)"/><path class="cls-2" d="M74.89,77.76c-.39-.38-.77-.78-1.17-1.15a23.06,23.06,0,0,0-4.82-3.7,8.5,8.5,0,0,0-1.67-.65,2.67,2.67,0,0,0-1.93.29,3.88,3.88,0,0,1-.36.15.62.62,0,0,1-.23,0,.69.69,0,0,1,.1-.19,2.3,2.3,0,0,1,1.54-.68A8.41,8.41,0,0,1,72.1,73.5,13.59,13.59,0,0,1,75,76.56.85.85,0,0,1,74.89,77.76Z" transform="translate(-14.59 -13.72)"/><path class="cls-2" d="M49.74,141.06l.5.33a3.36,3.36,0,0,0,2.11.57c1.2-.1,2.4-.15,3.59-.28a12.11,12.11,0,0,0,3.58-1.06c1-.45,2-1,3-1.47a3.2,3.2,0,0,1,.39-.16.78.78,0,0,1-.45,1c-.79.32-1.59.63-2.4.9-1.37.45-2.73.92-4.12,1.3a15.09,15.09,0,0,1-4.42.72,4.66,4.66,0,0,1-1.23-.21.91.91,0,0,1-.66-1.27C49.63,141.34,49.69,141.21,49.74,141.06Z" transform="translate(-14.59 -13.72)"/><path class="cls-2" d="M80.07,111.8a3.79,3.79,0,0,1-.38,3,8,8,0,0,1-.43.69c0,.06-.13.09-.19.14s-.09-.15-.09-.23c0-.61,0-1.23,0-1.85a3.49,3.49,0,0,0-.74-2.26c-.3-.41-.58-.84-.87-1.26a.41.41,0,0,1-.1-.21c0-.17,0-.4,0-.51a.7.7,0,0,1,.77-.1A5.59,5.59,0,0,1,80.07,111.8Z" transform="translate(-14.59 -13.72)"/><path class="cls-2" d="M62.1,68.33l2.13.92.87.36c.28.13.32.25.26.54l-.18.76a1.19,1.19,0,0,1-.89.93.27.27,0,0,1-.23-.08l-2-3.4Z" transform="translate(-14.59 -13.72)"/><path class="cls-2" d="M50.9,123.37a5.84,5.84,0,0,1-.47-2.68,9.32,9.32,0,0,1,.28-1.13.67.67,0,0,1,.12-.2,1.12,1.12,0,0,1,.22-.16.62.62,0,0,1,.1.24c0,.54.08,1.09.07,1.64a3.76,3.76,0,0,0,1.11,3c.22.2.48.36.71.54,0,0,.11.09.1.12a.21.21,0,0,1-.13.13,1.13,1.13,0,0,1-.45,0,8.53,8.53,0,0,1-1.05-.52,1,1,0,0,1-.34-.37A4.72,4.72,0,0,1,50.9,123.37Z" transform="translate(-14.59 -13.72)"/><path class="cls-2" d="M23.7,53.9l.2-.64,2.2,1.29c.36.2.73.38,1.09.57s.38.27.29.65c0,.15-.08.3-.13.47L25.68,55A4.15,4.15,0,0,0,23.7,53.9Z" transform="translate(-14.59 -13.72)"/><path class="cls-2" d="M51.81,49.54a.39.39,0,0,1,.19-.46,6.22,6.22,0,0,0,1.55-1.72c.41-.62.81-1.26,1.21-1.89l.16-.23.1,0a1.75,1.75,0,0,1,0,.61,8.44,8.44,0,0,1-2.52,3.44A.75.75,0,0,1,51.81,49.54Z" transform="translate(-14.59 -13.72)"/><path class="cls-2" d="M28.92,69.58a9.69,9.69,0,0,1,.7,3.3C28.68,72,28.24,69.94,28.92,69.58Z" transform="translate(-14.59 -13.72)"/><path class="cls-2" d="M23.47,77.16a2.86,2.86,0,0,1-2.4.65A2.74,2.74,0,0,1,23.47,77.16Z" transform="translate(-14.59 -13.72)"/><path class="cls-2" d="M26.63,60.25a1.88,1.88,0,0,1-1.37,1.24C25.17,61,26,60.25,26.63,60.25Z" transform="translate(-14.59 -13.72)"/><path class="cls-2" d="M55.32,44.84l-.81-.09.53-.59Z" transform="translate(-14.59 -13.72)"/><path class="cls-2" d="M57.17,52.7l.43-1C57.84,52.13,57.72,52.41,57.17,52.7Z" transform="translate(-14.59 -13.72)"/><path class="cls-3" d="M67.53,147.83c-.34-.27-.69-.56-1-.82a3.83,3.83,0,0,0-2.86-.85,11.21,11.21,0,0,0-2,.59,9.58,9.58,0,0,0-3.05,1.79c-.14.13-.25.27-.39.39s-.12,0-.18,0a.43.43,0,0,1,0-.16,1.61,1.61,0,0,1,.57-.84,13.33,13.33,0,0,1,4.8-2.3,4.11,4.11,0,0,1,4,1.54,3.77,3.77,0,0,1,.28.57Z" transform="translate(-14.59 -13.72)"/><path class="cls-3" d="M67.23,148.44a1.42,1.42,0,0,1-.86-.22,4.28,4.28,0,0,0-3.48-.5,11,11,0,0,0-3.1,1.29,3.08,3.08,0,0,1-.49.34,7,7,0,0,1-.9.23s-.09-.06-.08-.08a.17.17,0,0,1,.07-.12c.71-.45,1.4-.95,2.14-1.34a9.35,9.35,0,0,1,2-.81,4.59,4.59,0,0,1,4.13.67,4.27,4.27,0,0,1,.44.41Z" transform="translate(-14.59 -13.72)"/><path class="cls-3" d="M88.13,134.31c-.77-.22-1.54-.46-2.31-.67a5.24,5.24,0,0,0-4.09.56c-.3.17-.61.33-.92.49a4.11,4.11,0,0,0-1.66,1.62c-.08.13-.17.26-.27.4a.5.5,0,0,1-.16-.59.75.75,0,0,1,.13-.25,8.14,8.14,0,0,1,3.67-2.67,6.1,6.1,0,0,1,4.54.26,3.83,3.83,0,0,1,.67.34,3.27,3.27,0,0,1,.47.44Z" transform="translate(-14.59 -13.72)"/><path class="cls-3" d="M87.94,134.85a.67.67,0,0,1-.82.29,13.41,13.41,0,0,0-1.52-.26,9.08,9.08,0,0,0-3.78.67,3.54,3.54,0,0,0-1.57,1,4.09,4.09,0,0,1-.66.5l-.1,0a1.35,1.35,0,0,1,0-.29,3.89,3.89,0,0,1,2-1.69,9.76,9.76,0,0,1,3.69-.78A10.13,10.13,0,0,1,87.94,134.85Z" transform="translate(-14.59 -13.72)"/><path class="cls-3" d="M61.15,110.52c0,.28,0,.56.08.84q.38,2.76.77,5.54c.29,1.95.54,3.91.87,5.86.41,2.46.66,4.92.88,7.4.11,1.25.12,2.52.24,3.77a8.15,8.15,0,0,1-.32,3.64,2.14,2.14,0,0,0,0,.67c0,.5,0,1,0,1.48a4.09,4.09,0,0,0,.59,2.19c.32.61.62,1.22,1,1.81a.87.87,0,0,0,.42.36,5.76,5.76,0,0,1,3.07,3.3,8,8,0,0,1,.7,2.38,3.88,3.88,0,0,1-1.46,3.52,10.38,10.38,0,0,1-3.49,2c-.95.29-1.86.67-2.77,1.05a6.64,6.64,0,0,1-7.61-2.16,42.68,42.68,0,0,1-3.12-4.44,7.14,7.14,0,0,1-.88-3.12c-.08-1-.15-1.9-.26-2.84a.8.8,0,0,0-.3-.49,1.84,1.84,0,0,1-.68-2A11.58,11.58,0,0,0,49,140a.53.53,0,0,0-.09-.37,7.74,7.74,0,0,1-.95-2.14,32,32,0,0,1-1.14-4.19c-.42-1.89-.87-3.76-1.27-5.65-.28-1.29-.48-2.59-.74-3.88-.2-1-.42-2.07-.65-3.1s-.52-2.26-.83-3.38a19.53,19.53,0,0,0-.7-1.94c-.35-.91-.73-1.8-1.08-2.7q-1-2.53-2-5.08a17.81,17.81,0,0,1-1.44-6.21,2.71,2.71,0,0,0-.73-1.92A5.71,5.71,0,0,1,36,96.18a30.83,30.83,0,0,0-.72-3.69A21.18,21.18,0,0,1,35,89.72c-.1-1-.16-1.91-.25-2.86a3.18,3.18,0,0,0-.13-.51,18.88,18.88,0,0,1-1.41,1.31,7.18,7.18,0,0,1-5.45,1.48,5.85,5.85,0,0,1-3.17-1.68,10.51,10.51,0,0,1-2.7-4c-.47-1.21-.9-2.45-1.28-3.71a9.78,9.78,0,0,1-.3-2,1.71,1.71,0,0,1,.79-1.62,1.38,1.38,0,0,0,.62-1.37c-.11-1.55-.21-3.09-.29-4.64a10.08,10.08,0,0,1,1-4.77c.33-.73.72-1.43,1.1-2.14a1.25,1.25,0,0,0,.15-.87,3.44,3.44,0,0,1,.27-2c.16-.42.32-.83.5-1.24a1.19,1.19,0,0,0-.2-1.35,18.52,18.52,0,0,1-1.07-1.55,2.69,2.69,0,0,1-.34-2.16,6.38,6.38,0,0,1,.22-.86.75.75,0,0,0-.24-.91c-.73-.68-1.49-1.35-2.15-2.1a22,22,0,0,1-3.39-4.85,35,35,0,0,1-1.35-3.49c-.26-.71-.51-1.43-.7-2.17s-.23-1.28-.34-1.92a19.8,19.8,0,0,1,.14-7.2,22.54,22.54,0,0,1,1.21-3.95,20.72,20.72,0,0,1,2.61-4.92,17.56,17.56,0,0,1,4.87-4.54c.53-.33,1.13-.58,1.67-.91a19.55,19.55,0,0,1,5.9-2.15,17.59,17.59,0,0,1,9.27.43,22.07,22.07,0,0,1,8.47,5A19.45,19.45,0,0,1,52,23a15.36,15.36,0,0,1,1.51,2.4c.36.81.69,1.62,1,2.43a26.72,26.72,0,0,1,1.36,4.26,11.85,11.85,0,0,1,.33,3.14,32.47,32.47,0,0,1-.18,4.41c-.14.86-.38,1.7-.57,2.55,0,.2-.09.39-.12.59a1.06,1.06,0,0,0,.23.91,3.1,3.1,0,0,1,.68,2c0,.72,0,1.44,0,2.16,0,.55.07.66.62.72,1.25.15,2.51.28,3.76.45a18.54,18.54,0,0,1,5,1.59,47.59,47.59,0,0,1,4.51,2.56c1.41.81,2.84,1.58,4.26,2.37a.52.52,0,0,0,.37,0,5.16,5.16,0,0,1,4.91.61,9.58,9.58,0,0,1,4.62,9,8.8,8.8,0,0,1-.81,2.43,6.42,6.42,0,0,1-1.06,1.89c-.46.51-.46.53-1.11.25l-.72,1.27a23.77,23.77,0,0,1-2.57,3.49c-.49.6-1,1.18-1.49,1.76a3.15,3.15,0,0,0-.67,1.23A2.36,2.36,0,0,1,75,78.73a.89.89,0,0,0-.14,1.55c.64.67,1.3,1.32,1.94,2a2.56,2.56,0,0,1-.13,3.66,5.88,5.88,0,0,1-4.06,1.68c-.24,0-.36.11-.39.35a1.06,1.06,0,0,0,.22.81,12.92,12.92,0,0,1,1.33,2.75q.92,2.08,1.82,4.18c.35.81.68,1.62,1,2.45,1.11,3,2.23,6,3.29,9,.48,1.38.86,2.8,1.23,4.22.25.93.38,1.88.59,2.82.25,1.16.52,2.31.78,3.47.19.86.36,1.73.54,2.59.14.65.32,1.3.42,2a6,6,0,0,1-.16,2.48.48.48,0,0,0,0,.26c.2,1,.4,2,.63,3a4.48,4.48,0,0,0,.88,1.79,4.7,4.7,0,0,1,.37.54,1.79,1.79,0,0,0,1.36,1c.29.06.58.11.87.2A3.39,3.39,0,0,1,89.09,133a10.41,10.41,0,0,1,1.09,2.57,2.44,2.44,0,0,1-.26,2.07,6.41,6.41,0,0,1-1.87,2.29,7.9,7.9,0,0,1-1.72.86c-1.8.64-3.62,1.2-5.41,1.84a3.79,3.79,0,0,1-2.33,0,10.18,10.18,0,0,1-5.24-3.56,17,17,0,0,1-2-2.7,8.12,8.12,0,0,1-1-3.7,3,3,0,0,0-.07-.67,2.09,2.09,0,0,0-.3-.7,2.89,2.89,0,0,1-.56-2.13,3,3,0,0,0-.37-1.73c-.6-1.27-1.18-2.55-1.76-3.82s-1.05-2.33-1.59-3.48c-.91-2-1.84-3.88-2.76-5.82-.38-.79-.78-1.58-1.14-2.38-.17-.38-.28-.78-.41-1.17l-.1-.28ZM44.86,120.1l.75-.11a8.79,8.79,0,0,0,3.44-1.17,11.57,11.57,0,0,1,2-1.1c1.43-.55,2.88-1,4.34-1.48a13.27,13.27,0,0,1,2.17-.45,7.82,7.82,0,0,1,3.08.25c.38.1.49,0,.43-.38s-.13-.53-.16-.8c-.24-2.35-.48-4.71-.69-7.07-.11-1.36-.17-2.72-.24-4.09a1.38,1.38,0,0,1,.18-.61.28.28,0,0,1,.44-.13c.1.07.13.25.15.4s0,.22,0,.33c.06,1.09.13,2.19.19,3.28a6.43,6.43,0,0,0,.6,2.73c.68,1.32,1.3,2.67,1.94,4a.68.68,0,0,0,.74.45c.54,0,1.08,0,1.62,0a1.64,1.64,0,0,0,1.23-.41,4.77,4.77,0,0,0,.53-.57,8.35,8.35,0,0,1,2.1-2c.55-.32,1.11-.64,1.68-.91A28,28,0,0,1,75,108.67a10.34,10.34,0,0,1,3.7-.57c.2,0,.41,0,.66,0-.19-.54-.35-1-.54-1.54-1-2.59-2-5.18-3-7.77-.48-1.25-1-2.49-1.49-3.72s-1.09-2.57-1.64-3.85c-.29-.67-.57-1.34-.87-2-.2-.45-.49-.53-.92-.28s-1.12.68-1.69,1c-1.23.65-2.47,1.29-3.71,1.93-.75.39-1.49.81-2.27,1.13-1.18.49-2.39.94-3.6,1.36q-4.26,1.5-8.52,3c-.83.28-1.66.52-2.5.76-1.49.43-3,.85-4.47,1.23-1.19.31-2.39.57-3.59.84-.58.12-1.17.2-1.73.3a5.72,5.72,0,0,0,.16,2.11,26.84,26.84,0,0,0,.68,3.08c.48,1.54,1.06,3,1.64,4.56.51,1.32,1.06,2.62,1.63,3.92a22.54,22.54,0,0,1,1.29,3.73C44.47,118.57,44.66,119.33,44.86,120.1Zm28.79-64-.3-.17c-2-1.18-4.06-2.34-6.07-3.53a15.25,15.25,0,0,0-4.57-2c-1.81-.4-3.64-.67-5.46-1-.15,0-.31,0-.52,0l1.49,1.81a1.24,1.24,0,0,1,.2,1.45,2.44,2.44,0,0,1-1.16,1.17c-1.09.47-2.18.94-3.31,1.31a10.17,10.17,0,0,0-2.27.91c-1.84,1.12-3.7,2.22-5.58,3.34.08.11.14.18.19.26.31.44.66.86.93,1.33.42.75.79,1.53,1.18,2.3a.52.52,0,0,0,.63.3c.22,0,.44-.1.66-.16a3,3,0,0,1,3.48,1.56c.53,1.11,1.09,2.2,1.63,3.31s.92,1.94,1.35,2.92a22.75,22.75,0,0,1,1.57,5.48A3.49,3.49,0,0,1,57.39,79a5.64,5.64,0,0,1-1.21,1.46A9.13,9.13,0,0,1,53,82.09c-1.49.47-3,.93-4.52,1.33-1.08.28-2.19.47-3.3.66A2.19,2.19,0,0,1,42.75,83a4.75,4.75,0,0,1-.5-1c-.44-1.4-.84-2.82-1.27-4.27l-.2.25c-.42.57-.81,1.16-1.28,1.68a4.65,4.65,0,0,1-1,.65,1.5,1.5,0,0,0-.43.3c-.9,1.08-1.78,2.18-2.68,3.26a1.26,1.26,0,0,0-.29,1.06c.28,2.07.54,4.14.81,6.21a9.67,9.67,0,0,0,.83,3.26.54.54,0,0,0,.3.28,5,5,0,0,0,1.22,0c1.05-.15,2.09-.34,3.11-.57,1.56-.36,3.12-.72,4.65-1.16,2-.58,4.08-1.18,6.09-1.85,1.62-.55,3.22-1.2,4.82-1.83s3.33-1.34,5-2.08,3.17-1.51,4.73-2.29c1-.51,2-1.06,3-1.6.25-.14.28-.3.13-.56-.82-1.44-1.63-2.9-2.48-4.33-1.31-2.19-2.62-4.38-4-6.54a42.39,42.39,0,0,1-2.9-5.29c-.43-1-.86-1.93-1.27-2.9-.29-.68-.56-1.38-.84-2.06a.32.32,0,0,1,.19-.47c.25-.11.4-.07.52.16a2.44,2.44,0,0,1,.1.24L61,66.28a1.9,1.9,0,0,0,.94,1c.81.4,1.6.82,2.42,1.19.53.24,1.09.41,1.64.62.11-.94.19-1.84.31-2.74a11.13,11.13,0,0,1,1.13-4,15.94,15.94,0,0,1,4.66-5.37C72.58,56.71,73.11,56.41,73.65,56.06Zm-57-14.13h0a1.59,1.59,0,0,1,.07.2,19.73,19.73,0,0,0,3.11,6.07,33.13,33.13,0,0,0,4.3,4.24,16,16,0,0,0,3.38,2.09.32.32,0,0,0,.26-.06c.29-.24.56-.51.84-.75a3.43,3.43,0,0,1,1.77-.91,3.17,3.17,0,0,1,2.63.83,9.85,9.85,0,0,1,1,1.09,1,1,0,0,0,1,.36c.4-.11.82-.15,1.23-.24,1.27-.28,2.54-.54,3.8-.87a27,27,0,0,0,5.12-2,28.28,28.28,0,0,0,6.27-4,4.67,4.67,0,0,0,1.49-1.89c.14-.36.31-.72.48-1.08A17,17,0,0,0,55,40.72c.22-1.24.3-2.51.43-3.76a15.74,15.74,0,0,0-.61-5.87,28,28,0,0,0-1.35-3.75,23.76,23.76,0,0,0-2.28-4.17A21,21,0,0,0,39.07,15a16.92,16.92,0,0,0-9.12.16,20.05,20.05,0,0,0-7.13,3.58,18.84,18.84,0,0,0-5.48,7.17,22.32,22.32,0,0,0-1.54,4.59,22.87,22.87,0,0,0-.32,4.6,15.68,15.68,0,0,0,.31,3.62C16.05,39.81,16.38,40.87,16.69,41.93Zm17.06,19.5a1.47,1.47,0,0,1,.74-.79c.4-.22.8-.45,1.19-.69s.27-.31.17-.51a4.89,4.89,0,0,1-.35-.73A11.59,11.59,0,0,0,33,54.61a2.67,2.67,0,0,0-2-1,2.86,2.86,0,0,0-2.55,1.84,2,2,0,0,0,.05,1.86,29.28,29.28,0,0,1,1.69,4.43,6.25,6.25,0,0,1,.29,2.68c-.14.87-.31,1.73-.48,2.6a6.46,6.46,0,0,0,.23,3.91c.14.34.3.68.46,1a13.34,13.34,0,0,0,1.82,3,10.65,10.65,0,0,0,2.05,1.86,5.29,5.29,0,0,0,4.29.7,2.77,2.77,0,0,0,.93-.36c.75-.5,1.49-1,2.19-1.57a6.23,6.23,0,0,1,3.62-1.4,3.35,3.35,0,0,0,2.83-1.75,5.53,5.53,0,0,0,.72-2.81,13.36,13.36,0,0,0-.77-4.25,19.05,19.05,0,0,0-2.66-5.29A4.3,4.3,0,0,0,42,58.2a8.4,8.4,0,0,0-3.85,1.16c-.93.49-1.8,1.1-2.7,1.65A2.27,2.27,0,0,1,33.75,61.43Zm28.53,62-.09,0-.32.53a3.27,3.27,0,0,1-1.25,1.28,7.28,7.28,0,0,1-1.14.52c-1,.32-2.07.64-3.12.9a11.28,11.28,0,0,1-2.08.34,8.47,8.47,0,0,1-4.46-1.23,12.53,12.53,0,0,0-2.65-1.3c-.49-.14-1-.21-1.53-.32a4,4,0,0,0,.07.42c.19.91.39,1.81.57,2.72s.38,2,.61,3.07.47,1.74.66,2.62a25.45,25.45,0,0,0,1.53,5.13c.26.58.48,1.19.79,1.74A2.5,2.5,0,0,0,52,141.11a15.11,15.11,0,0,0,6.59-1c1-.36,1.92-.8,2.88-1.2a2.22,2.22,0,0,0,1.44-1.51,10.19,10.19,0,0,0,.32-2c0-.9-.1-1.8-.17-2.71q-.27-3.57-.55-7.16C62.44,124.81,62.35,124.11,62.28,123.42Zm2,20.3c-.16-.31-.31-.59-.44-.87-.27-.56-.51-1.13-.78-1.69-.17-.35-.32-.39-.67-.24-.14.06-.26.15-.4.2-.65.23-1.29.47-1.95.67-1.51.44-3,.87-4.54,1.29a13.08,13.08,0,0,1-4.61.62c-.27,0-.36.08-.33.36.08,1,.15,1.95.26,2.92a5.19,5.19,0,0,0,.8,2.44c.95,1.36,1.92,2.71,2.88,4.07a5.51,5.51,0,0,0,4.7,2.44,8.94,8.94,0,0,0,1.7-.25,5.92,5.92,0,0,0,2-.69,16.23,16.23,0,0,1,2.47-1.14,5.82,5.82,0,0,0,2.45-1.73,2.5,2.5,0,0,0,.67-2.3,24.87,24.87,0,0,0-.87-2.65,3.81,3.81,0,0,0-3.82-2.57,10.58,10.58,0,0,0-1.85.27c-.32,0-.43,0-.51-.24s0-.42.3-.5a4.67,4.67,0,0,1,.74-.17C63.15,143.87,63.73,143.8,64.33,143.72Zm18.59-15.65-.13.11a7.28,7.28,0,0,1-2.55,1.56c-.88.33-1.77.64-2.66.95a14.44,14.44,0,0,1-3.66,1c-.85.08-1.71.1-2.57.14-.33,0-.42.07-.37.31.08.47.15.94.24,1.41a7.94,7.94,0,0,0,1,2.78,15.29,15.29,0,0,0,4.06,4.42,6,6,0,0,0,5.77.9c1.15-.42,2.32-.81,3.48-1.21a7.21,7.21,0,0,0,3.77-3.17,1.3,1.3,0,0,0,.19-1.08,13.26,13.26,0,0,0-.95-2.6,2.66,2.66,0,0,0-2.58-1.49c-.78,0-1.57,0-2.35,0a.78.78,0,0,1-.7-.42,1,1,0,0,1,.84-.35c.32,0,.63,0,1,.06ZM36.75,95.62a7.7,7.7,0,0,0,.75,2.61,2.3,2.3,0,0,0,2.72,1.22c1.2-.29,2.4-.59,3.61-.85a46.25,46.25,0,0,0,5.46-1.47l9.2-3.22c.6-.21,1.21-.39,1.81-.61s1.44-.53,2.14-.84,1.36-.68,2-1,1.25-.51,1.84-.82c1.46-.75,2.89-1.55,4.33-2.32a1.38,1.38,0,0,0,.82-1.23,5.37,5.37,0,0,0-.87-3A.45.45,0,0,0,70,84l-.24.15c-.94.52-1.86,1.07-2.81,1.55S65,86.58,64,87c-1.24.59-2.45,1.23-3.72,1.76-2.25.94-4.52,1.85-6.81,2.69-1.46.54-3,.94-4.45,1.39-1.08.32-2.16.64-3.25.93s-2.4.63-3.61.9-2.18.46-3.28.65C38.18,95.48,37.46,95.53,36.75,95.62ZM66,118.77c0,.09,0,.14.06.19.36.79.67,1.61,1.08,2.38,1.15,2.2,2.08,4.5,3,6.78a2.06,2.06,0,0,0,2,1.27,11.75,11.75,0,0,0,2.88-.5c1-.3,2-.63,3-.94a9.25,9.25,0,0,0,2.27-1,4.81,4.81,0,0,0,2.17-2.49,5.43,5.43,0,0,0,0-2.8c-.35-1.73-.73-3.46-1.1-5.19-.08-.37-.19-.74-.3-1.12-.3.3-.57.59-.87.85a12.94,12.94,0,0,1-3,1.88,15.47,15.47,0,0,1-1.83.78,26.11,26.11,0,0,1-3.82.77,7.07,7.07,0,0,1-3.2-.21c-.66-.18-1.31-.38-2-.57C66.27,118.85,66.13,118.82,66,118.77ZM45,120.9c.13.64.28,1.27.38,1.91.08.46.19.6.67.64a5.77,5.77,0,0,1,2.3.63c.87.43,1.71.92,2.59,1.33a7,7,0,0,0,3.46.77,14.24,14.24,0,0,0,5.35-1.44,2.88,2.88,0,0,0,1.38-1.31c.2-.4.38-.82.59-1.22a1.63,1.63,0,0,0,.12-1q-.3-1.83-.57-3.66c-.07-.48-.26-.72-.75-.77-.75-.07-1.5-.14-2.26-.14a9.18,9.18,0,0,0-3,.39c-1.19.4-2.36.81-3.54,1.24a5.28,5.28,0,0,0-.67.34,1.89,1.89,0,0,1,.85,1.78l.06,1.09a3.13,3.13,0,0,0,.88,2.15,6.21,6.21,0,0,1,.52.63.65.65,0,0,1,.06.76,1.17,1.17,0,0,1-1.13.44,3.19,3.19,0,0,1-2.39-2.39,6.14,6.14,0,0,1-.08-3c0-.3.1-.59.15-.92A11.75,11.75,0,0,1,45,120.9ZM75.62,76.1c1.09-1.3,2.15-2.56,3.19-3.84a11.76,11.76,0,0,0,1.81-3.05,1.17,1.17,0,0,0-.2-1.33c-.21-.23-.4-.47-.59-.7a6.1,6.1,0,0,0-5.55-2.37A19.92,19.92,0,0,0,69.58,66a3.66,3.66,0,0,0-2,1.61c-.53.93-1,1.87-1.51,2.82a3.91,3.91,0,0,0-.21.77l.21,0a4.94,4.94,0,0,1,2.13,0,12,12,0,0,1,7.38,5Zm3.22-19.56,0,.05.15.2a7,7,0,0,1,.71.84c.48.75.92,1.53,1.38,2.31a4.82,4.82,0,0,1,.68,2,3.46,3.46,0,0,1-.25,1.8.68.68,0,0,1-1.06.35,1.16,1.16,0,0,1-.32-.46c-.37-.9-.68-1.83-1.07-2.73a5.68,5.68,0,0,0-2.1-2.55c-.38-.24-.8-.42-1.2-.63a.81.81,0,0,1-.53-1c0-.12,0-.24.07-.4a12.84,12.84,0,0,0-5.67,4.27A11.56,11.56,0,0,0,67,67.06a6.3,6.3,0,0,0,.37-.53l2.06-3.26a.41.41,0,0,1,.48-.22c.17.05.24.32.13.55a6.52,6.52,0,0,1-.43.83c-.18.29-.4.56-.64.88l.19,0a27.77,27.77,0,0,1,4.57-1.14,6.63,6.63,0,0,1,4.11.51,8.43,8.43,0,0,1,3.54,3.31c.18.29.37.58.58.9a7.33,7.33,0,0,0,1.63-4.27,9.23,9.23,0,0,0-4.21-7.78A3.65,3.65,0,0,0,78.84,56.54ZM51.32,49.27a35.47,35.47,0,0,1-16.27,6.65C35.53,57,36,58,36.45,59c.1.21.3.22.5.14l.57-.25A7,7,0,0,0,39,58a2.65,2.65,0,0,1,.93-.38c.36-.09.73-.13,1.1-.19a4.43,4.43,0,0,1,.72-.09,5.84,5.84,0,0,1,3.28,1,.86.86,0,0,0,.82.09,2.44,2.44,0,0,0,.56-.28c1-.63,2-1.27,3-1.92a13.3,13.3,0,0,1,3.7-1.73c.66-.18,1.3-.44,1.94-.66l0-.1-.43,0a6.77,6.77,0,0,1-.78,0,.71.71,0,0,1-.6-.52l.33,0A3.4,3.4,0,0,0,55.12,53c.39-.17.79-.34,1.17-.52a.82.82,0,0,0,.55-1,2.7,2.7,0,0,0-.2-.54l-1.46-2.8-.44-.81a1,1,0,0,0-.06.86c.46.89.89,1.8,1.34,2.69.32.65.2,1.12-.43,1.35s-1.46.45-2.2.67a.23.23,0,0,1-.17-.07s0-.13,0-.15a8.38,8.38,0,0,1,.75-.46c.31-.16.66-.26,1-.43.63-.37.64-.64.05-1.08l-.06,0-.11.1a13.07,13.07,0,0,1-3,2.18c-.68.34-1.37.65-2.07,1l-3.63,1.62a.71.71,0,0,1-.78-.15c.14-.19.24-.45.42-.54.73-.33,1.5-.6,2.25-.92s1.37-.56,2-.88c.43-.22.83-.51,1.25-.75a27.32,27.32,0,0,0,3.17-2.17s.14-.14.12-.19c-.13-.44-.29-.87-.45-1.33-.13.12-.21.22-.3.29-.39.33-.77.68-1.18,1a.62.62,0,0,1-.91-.11C51.59,49.63,51.48,49.46,51.32,49.27Zm25.21,59.67c-.59.2-1.2.37-1.77.62-1.25.56-2.5,1.13-3.72,1.74a7.5,7.5,0,0,0-2.86,2.42A2.65,2.65,0,0,1,65.74,115c-.54,0-1.09,0-1.65,0,.09.16.19.29.25.43.35.76.69,1.53,1,2.29a.64.64,0,0,0,.55.41,10.44,10.44,0,0,1,1.68.35,9.64,9.64,0,0,0,3.45.48,18.27,18.27,0,0,0,3.29-.57,17.73,17.73,0,0,0,4.58-2c.16-.09.18-.19,0-.27a1,1,0,0,1-.6-1,7.38,7.38,0,0,0,0-.94,6.58,6.58,0,0,0-1.18-3.09,4.68,4.68,0,0,1-.58-1.24A3.1,3.1,0,0,1,76.53,108.94ZM49.76,67.39c0,.81.1,1.59.12,2.39a4.82,4.82,0,0,1-1,3.4A4.49,4.49,0,0,1,45.64,75a4.06,4.06,0,0,0-.7.08c-.56.18-1.11.4-1.67.59a.44.44,0,0,0-.32.51,1.63,1.63,0,0,0,.08.43c.46,1.35.93,2.71,1.41,4.06A.57.57,0,0,0,45,81a22.44,22.44,0,0,0,3.06-.63C50,79.73,51.8,79,53.65,78.23A1,1,0,0,0,54.39,77a13.9,13.9,0,0,0-.48-2.41c-.46-1.38-1-2.73-1.57-4.08-.31-.76-.65-1.51-1-2.25A1.37,1.37,0,0,0,49.76,67.39ZM34.2,84.83a3.56,3.56,0,0,0-.61-.14,10.16,10.16,0,0,1-3-.77,8.5,8.5,0,0,1-4.25-3.45,15.36,15.36,0,0,1-1.74-4.36.61.61,0,0,1,.09-.44,6.44,6.44,0,0,1,.6-.69,6.21,6.21,0,0,0-3.34,1.59.31.31,0,0,0,.21,0c.26,0,.51-.07.77-.09a.88.88,0,0,1,.91.53.93.93,0,0,1-.43,1.06,2.39,2.39,0,0,1-.92.34,9.47,9.47,0,0,1-1.41,0c.14.57.24,1.18.44,1.76.35,1,.77,2,1.14,3a9.08,9.08,0,0,0,2.44,3.66,5,5,0,0,0,3.78,1.57,7.08,7.08,0,0,0,4.53-2A2.72,2.72,0,0,0,34.2,84.83ZM22.4,75.11c1-.36,2-.69,3-1.06a1.6,1.6,0,0,0,.69-.48c.46-.63.87-1.29,1.27-1.95a1.89,1.89,0,0,0,.24-1.08,2.31,2.31,0,0,1,.83-1.9,1.84,1.84,0,0,0,.62-1.06c.15-.76.28-1.53.44-2.29a6.91,6.91,0,0,0-.06-3.44.71.71,0,0,0-.7-.61,2.2,2.2,0,0,0-1.86.55,6.45,6.45,0,0,1-2.2,1.38,1.19,1.19,0,0,0-.57.54c-.35.65-.67,1.32-1,2a10,10,0,0,0-1,4.56c.05,1,.13,2,.18,3C22.37,73.88,22.38,74.47,22.4,75.11Zm43.41-2-.22.07c-.32.12-.39.29-.22.58.6,1,1.17,2,1.81,3a48.24,48.24,0,0,1,2.72,4.73,10.84,10.84,0,0,0,1.21,2,5.23,5.23,0,0,1,1.12,2.7c0,.41.22.54.63.53a4.72,4.72,0,0,0,2.25-.7,3.62,3.62,0,0,0,1.28-1,1.67,1.67,0,0,0,.2-1.57,3.27,3.27,0,0,0-1-1.37L74.38,81a1.75,1.75,0,0,1-.5-2.34.69.69,0,0,0-.14-.86,22.28,22.28,0,0,0-5.5-4.35A2.69,2.69,0,0,0,65.81,73.13ZM41.52,77c.06.16.12.31.17.47a19.08,19.08,0,0,1,.65,2.07,9.27,9.27,0,0,0,.86,2.67c.44.78.68,1.22,1.83,1s2.47-.31,3.66-.61c1.41-.35,2.79-.86,4.17-1.31A9.62,9.62,0,0,0,56,79.49a2.51,2.51,0,0,0,1-2.17,16.31,16.31,0,0,0-1.45-5.65c-.5-1.14-1-2.3-1.51-3.42s-1-2-1.55-3A2.27,2.27,0,0,0,50.9,64a3.85,3.85,0,0,0-2.11.33c0,.07,0,.12,0,.16.18.57.37,1.14.54,1.71a.5.5,0,0,0,.62.41,1.2,1.2,0,0,1,1,.16,3.47,3.47,0,0,1,.62.59,11.25,11.25,0,0,1,1.51,2.71,27.14,27.14,0,0,1,1.81,5.1,17.86,17.86,0,0,1,.27,2.2,1.16,1.16,0,0,1-.47,1,5.86,5.86,0,0,1-1.9,1.11,39,39,0,0,1-5.42,1.86c-.84.18-1.68.3-2.53.43a.84.84,0,0,1-1-.54c-.44-1.16-.86-2.32-1.28-3.49-.16-.44-.26-.9-.4-1.37Zm-4.44,3.68h-.27a6.22,6.22,0,0,1-3.93-1.3A14.62,14.62,0,0,1,28,72.76a3.17,3.17,0,0,0-.18-.38l-.08.1L25.63,76A1.05,1.05,0,0,0,25.58,77a12.69,12.69,0,0,1,.48,1.21,8.73,8.73,0,0,0,2.42,3.58A10.31,10.31,0,0,0,33.8,84a.75.75,0,0,0,.68-.26c.28-.3.57-.6.83-.91C35.9,82.1,36.47,81.4,37.08,80.66Zm-8-7.41a1.48,1.48,0,0,0,.11.32c.47.76.92,1.52,1.43,2.25A10.55,10.55,0,0,0,33.8,79a4.84,4.84,0,0,0,4.64.51,2.82,2.82,0,0,0,1.24-1.29c-.39,0-.77.08-1.14.14a6.11,6.11,0,0,1-4.13-.67A9.45,9.45,0,0,1,32,75.56a15.36,15.36,0,0,1-1.59-2.32c-.05-.09-.17-.2-.25-.19C29.76,73.1,29.42,73.18,29,73.25Zm41.25,56.14c-.15.2-.15.2,0,.66a1.07,1.07,0,0,0,1,1,6.89,6.89,0,0,0,3-.18c1.15-.3,2.28-.65,3.42-1a17.12,17.12,0,0,0,3.8-1.6,2.16,2.16,0,0,0,1.18-2,1.51,1.51,0,0,0,0-.28c-.12.13-.2.21-.26.29A4.94,4.94,0,0,1,80.1,128q-2.25.84-4.55,1.58a13.78,13.78,0,0,1-3.26.59A2.07,2.07,0,0,1,70.28,129.39ZM24.13,56.27l-.05,0c.29.42.6.82.88,1.25a2.83,2.83,0,0,1,.34.7A2.24,2.24,0,0,1,25,59.78c-.19.48-.38,1-.54,1.47a1.25,1.25,0,0,0,.08,1l.62-.21c-.1-.18-.19-.35-.29-.51a.67.67,0,0,1-.06-.67,1.45,1.45,0,0,1,1.24-1c.39-.07.45,0,.63.32.09.16.26.41.38.4.55,0,1.1-.17,1.7-.28a9.66,9.66,0,0,0-.31-1.18c-.28-.7-.61-1.37-.92-2a1.1,1.1,0,0,0-1-.77.7.7,0,0,1-.17-.06,6.53,6.53,0,0,1-2-1.46,4.61,4.61,0,0,0-.6-.47l-.09.07a1,1,0,0,0,0,.3,2.14,2.14,0,0,0,.23.38,4.52,4.52,0,0,0,2.14,1.48l1.12.43-.12.07-.15,0a2.14,2.14,0,0,1-1.64-.22ZM74.89,77.76a.85.85,0,0,0,.11-1.2,13.59,13.59,0,0,0-2.9-3.06,8.41,8.41,0,0,0-5.75-1.69,2.3,2.3,0,0,0-1.54.68.69.69,0,0,0-.1.19.62.62,0,0,0,.23,0,3.88,3.88,0,0,0,.36-.15,2.67,2.67,0,0,1,1.93-.29,8.5,8.5,0,0,1,1.67.65,23.06,23.06,0,0,1,4.82,3.7C74.12,77,74.5,77.38,74.89,77.76Zm-25.15,63.3c-.05.15-.11.28-.14.41a.91.91,0,0,0,.66,1.27,4.66,4.66,0,0,0,1.23.21,15.09,15.09,0,0,0,4.42-.72c1.39-.38,2.75-.85,4.12-1.3.81-.27,1.61-.58,2.4-.9a.78.78,0,0,0,.45-1,3.2,3.2,0,0,0-.39.16c-1,.49-2,1-3,1.47a12.11,12.11,0,0,1-3.58,1.06c-1.19.13-2.39.18-3.59.28a3.36,3.36,0,0,1-2.11-.57ZM80.07,111.8a5.59,5.59,0,0,0-2-2.55.7.7,0,0,0-.77.1c-.09.11,0,.34,0,.51a.41.41,0,0,0,.1.21c.29.42.57.85.87,1.26a3.49,3.49,0,0,1,.74,2.26c0,.62,0,1.24,0,1.85,0,.08.06.15.09.23s.15-.08.19-.14a8,8,0,0,0,.43-.69A3.79,3.79,0,0,0,80.07,111.8ZM80.65,64c.09-.09.2-.14.2-.2A7.88,7.88,0,0,0,80.94,62a8.47,8.47,0,0,0-2-4.14,4.45,4.45,0,0,0-1.42-1.17,2,2,0,0,0-2,.2C78.79,58.14,80.34,60.62,80.65,64ZM62.1,68.33l0,0,2,3.4a.27.27,0,0,0,.23.08,1.19,1.19,0,0,0,.89-.93l.18-.76c.06-.29,0-.41-.26-.54l-.87-.36Zm-11.2,55a4.72,4.72,0,0,0,.27.63,1,1,0,0,0,.34.37,8.53,8.53,0,0,0,1.05.52,1.13,1.13,0,0,0,.45,0,.21.21,0,0,0,.13-.13s-.06-.09-.1-.12c-.23-.18-.49-.34-.71-.54a3.76,3.76,0,0,1-1.11-3c0-.55,0-1.1-.07-1.64a.62.62,0,0,0-.1-.24,1.12,1.12,0,0,0-.22.16.67.67,0,0,0-.12.2,9.32,9.32,0,0,0-.28,1.13A5.84,5.84,0,0,0,50.9,123.37ZM23.7,53.9a4.15,4.15,0,0,1,2,1.08l1.67,1.26c0-.17.09-.32.13-.47.09-.38.06-.45-.29-.65s-.73-.37-1.09-.57l-2.2-1.29Zm28.11-4.36a.75.75,0,0,0,.66-.23A8.44,8.44,0,0,0,55,45.87a1.75,1.75,0,0,0,0-.61l-.1,0-.16.23c-.4.63-.8,1.27-1.21,1.89A6.22,6.22,0,0,1,52,49.08.39.39,0,0,0,51.81,49.54Zm-22.89,20c-.68.36-.24,2.46.7,3.3A9.69,9.69,0,0,0,28.92,69.58Zm-5.45,7.58a2.74,2.74,0,0,0-2.4.65A2.86,2.86,0,0,0,23.47,77.16Zm3.16-16.91c-.67,0-1.46.73-1.37,1.24A1.88,1.88,0,0,0,26.63,60.25ZM55.32,44.84,55,44.16l-.53.59Zm1.85,7.86c.55-.29.67-.57.43-1Z" transform="translate(-14.59 -13.72)"/><path class="cls-3" d="M52.43,62.52a2.36,2.36,0,0,1,.08-1.91A1.56,1.56,0,0,1,54.86,60a2.82,2.82,0,0,1,1.24,2.14A1.66,1.66,0,0,1,55.22,64a1.48,1.48,0,0,1-1.59,0A2.38,2.38,0,0,1,52.43,62.52Zm.68-.34a1.83,1.83,0,0,0,1,1.21.68.68,0,0,0,1-.41,10.28,10.28,0,0,0,.27-1.25.17.17,0,0,0,0-.14,10.48,10.48,0,0,0-1-1,.71.71,0,0,0-1.12.31A1.83,1.83,0,0,0,53.11,62.18Z" transform="translate(-14.59 -13.72)"/><path class="cls-3" d="M55.23,65.44c0-.2-.08-.46-.12-.72a.77.77,0,0,1,.38-.82,1.09,1.09,0,0,1,1.11-.19,2,2,0,0,1,1,2.22,1.15,1.15,0,0,1-1.34.78.87.87,0,0,1-.63-.5C55.47,66,55.37,65.73,55.23,65.44ZM56,65.3a1.81,1.81,0,0,0,.17.39c.07.09.2.2.3.19s.22-.12.27-.22a.79.79,0,0,0-.39-1.08.36.36,0,0,0-.32,0,.37.37,0,0,0-.13.31A1.54,1.54,0,0,0,56,65.3Z" transform="translate(-14.59 -13.72)"/><path class="cls-3" d="M70.22,115.16a4,4,0,0,1-.18-2c.09-.46.23-.57.69-.55s.71.18.76.61a3.79,3.79,0,0,0,.8,2.12,11.33,11.33,0,0,0,1,1,.74.74,0,0,1,.16,1.06.63.63,0,0,1-.87.23A4.71,4.71,0,0,1,70.22,115.16Zm.67-2.43-.11,0a1.3,1.3,0,0,0-.14.32c0,.28,0,.57,0,.86a2.81,2.81,0,0,0,.78,2.12c.42.42.9.78,1.34,1.17a.46.46,0,0,0,.63,0,3,3,0,0,0-.36-.48,3.63,3.63,0,0,0-.55-.39,2.81,2.81,0,0,1-1.14-1.49A5,5,0,0,1,70.89,112.73Z" transform="translate(-14.59 -13.72)"/><path class="cls-3" d="M26.08,58.12l1-.24a.44.44,0,0,1,.57.28c0,.23-.14.36-.31.46a2.15,2.15,0,0,1-1.43.16.43.43,0,0,1-.26-.27c0-.1.13-.22.22-.31A.55.55,0,0,1,26.08,58.12Z" transform="translate(-14.59 -13.72)"/><path class="cls-2" d="M53.11,62.18a1.83,1.83,0,0,1,.13-1.29.71.71,0,0,1,1.12-.31,10.48,10.48,0,0,1,1,1,.17.17,0,0,1,0,.14A10.28,10.28,0,0,1,55.11,63a.68.68,0,0,1-1,.41A1.83,1.83,0,0,1,53.11,62.18Z" transform="translate(-14.59 -13.72)"/><path class="cls-2" d="M56,65.3a1.54,1.54,0,0,1-.1-.41.37.37,0,0,1,.13-.31.36.36,0,0,1,.32,0,.79.79,0,0,1,.39,1.08c0,.1-.18.22-.27.22s-.23-.1-.3-.19A1.81,1.81,0,0,1,56,65.3Z" transform="translate(-14.59 -13.72)"/><path class="cls-2" d="M70.89,112.73a5,5,0,0,0,.41,2.12,2.81,2.81,0,0,0,1.14,1.49,3.63,3.63,0,0,1,.55.39,3,3,0,0,1,.36.48.46.46,0,0,1-.63,0c-.44-.39-.92-.75-1.34-1.17a2.81,2.81,0,0,1-.78-2.12c0-.29,0-.58,0-.86a1.3,1.3,0,0,1,.14-.32Z" transform="translate(-14.59 -13.72)"/><path class="cls-3" d="M40.45,49.08A31.12,31.12,0,0,1,31.58,51c-5.47.2-7.89-4-10-7.69l-.5-.86c-2.66-4.54-3.61-7.72-2.88-9.72.58-1.62,2.08-2.16,3.29-2.59.26-.09.5-.18.72-.28,2-.86,11.53-4.09,16.63-5.82l2.78-.94c3.76-1.3,5.32-1.84,7.18.71a25.2,25.2,0,0,1,4.35,13c.15,4.1-.49,6.1-2.39,7.38A47.08,47.08,0,0,1,40.45,49.08ZM28.92,28.17c-3,1-5.5,1.94-6.43,2.33-.23.1-.49.2-.77.3-1.11.4-2.37.85-2.84,2.14-.63,1.75.32,4.8,2.83,9.08l.5.86c2.12,3.69,4.32,7.51,9.34,7.32,7.5-.27,16.5-5.08,18.76-6.7,1.4-1,2.23-2.4,2.07-6.75,0-.07-.22-7.11-4.2-12.55-1.54-2.1-2.65-1.71-6.34-.44l-2.78.94C36.33,25.63,32.35,27,28.92,28.17Z" transform="translate(-14.59 -13.72)"/><path d="M47.46,43.21a6.79,6.79,0,0,1-1.48.35l-.13-1a7.17,7.17,0,0,0,6-5.94l1,.14A8.22,8.22,0,0,1,47.46,43.21Z" transform="translate(-14.59 -13.72)"/></svg>